<?xml version="1.0" encoding="utf-8"?>
<!-- Generator: Adobe Illustrator 20.0.0, SVG Export Plug-In . SVG Version: 6.00 Build 0)  -->
<svg version="1.1" id="Layer_1" xmlns="http://www.w3.org/2000/svg" xmlns:xlink="http://www.w3.org/1999/xlink" x="0px" y="0px"
	 viewBox="0 0 120 120" style="enable-background:new 0 0 120 120;" xml:space="preserve">
<style type="text/css">
	.st0{fill:#34BECD;}
	.st1{fill:#FFFFFF;}
</style>
<g id="Shape">
	<path class="st0" d="M120,108c0,6.6-5.4,12-12,12H12c-6.6,0-12-5.4-12-12V12C0,5.4,5.4,0,12,0h96c6.6,0,12,5.4,12,12V108L120,108z"
		/>
</g>
<g>
	<path class="st1" d="M97.3,38.3h-8c-1.7,0-3.5-0.8-4.8-2l-6.4-5.5c-1.3-1.1-3.1-1.9-4.8-1.9H57.7c-2,0-3.9,0.8-5.3,2.3l-8.3,6.8
		c-0.7,0.5-0.7,1.6-0.1,2.3l2.5,2.4c1.7,1.3,4,1.6,5.7,0.4l7.3-4.4c0.9-0.7,2.3-0.4,3.1,0.4l23.1,22.4c0.5,0.5,0.9,1.3,0.9,2.1v6
		c0,1.6,1.2,3.3,2.7,3.3h8c1.5,0,2.7-1.2,2.7-2.8V41C100,39.4,98.8,38.3,97.3,38.3z M74.7,62.3l-14.4-14l-4,2.4
		c-2,1.2-4.3,1.9-6.5,1.9c-2.8,0-5.7-1.1-8-2.9l-5.2-4.3c-1.2-0.9-1.9-2-2-3.5c-0.3-1.5-1.3-2.3-2.7-2.3h-9.2
		c-1.5,0-2.7,0.8-2.7,2.4v24.3c0,1.6,1.2,2.7,2.7,2.7H28c0.4,0,0.9-1.5,1.5-2.1c2-2.7,4.9-4.1,8.1-4.5c3.2-0.3,6.3,0.8,8.8,3.1
		l16.7,15.2c1.5,1.3,2.5,2.8,3.2,4.7c0.4,0.9,1.5,1.2,2.1,0.5l6.3-6.3c3.2-3.2,5.6-10.7,2.7-14.1C77.3,65.4,74.7,62.3,74.7,62.3z
		 M41.2,72.2c-1.7-1.6-4.3-1.3-5.6,0.5c-1.5,1.9-1.2,4.5,0.5,6.1l16.7,15.1c0.8,0.8,1.9,1.1,2.9,0.9c1.1-0.1,2-0.7,2.7-1.6
		c1.5-1.9,1.2-4.5-0.5-6.1C57.9,87.1,41.2,72.2,41.2,72.2z"/>
</g>
</svg>