<?xml version="1.0" encoding="utf-8"?>
<!-- Generator: Adobe Illustrator 20.0.0, SVG Export Plug-In . SVG Version: 6.00 Build 0)  -->
<svg version="1.1" id="Layer_1" xmlns="http://www.w3.org/2000/svg" xmlns:xlink="http://www.w3.org/1999/xlink" x="0px" y="0px"
	 viewBox="0 0 120 120" style="enable-background:new 0 0 120 120;" xml:space="preserve">
<style type="text/css">
	.st0{fill:#DB5289;}
	.st1{fill:#FFFFFF;}
</style>
<g id="Shape">
	<path class="st0" d="M120,108c0,6.6-5.4,12-12,12H12c-6.6,0-12-5.4-12-12V12C0,5.4,5.4,0,12,0h96c6.6,0,12,5.4,12,12V108L120,108z"
		/>
</g>
<path class="st1" d="M86.8,85.2H82v-9.5h4.7c0.9,0,1.6-0.7,1.6-1.6V33.2c0-0.9-0.7-1.6-1.6-1.6h-41c-0.9,0-1.6,0.7-1.6,1.6V38h-9.5
	v-4.7c0-6.1,4.9-11,11-11h40.9c6.1,0,11,4.9,11,11v41C97.7,80.3,92.9,85.2,86.8,85.2z M69.4,44.3h-41c-3.5,0-6.3,2.8-6.3,6.3v40.9
	c0,3.5,2.8,6.3,6.3,6.3h41c3.5,0,6.3-2.8,6.3-6.3v-41C75.7,47.1,72.9,44.3,69.4,44.3z M42.4,84.4c-0.3,0.3-0.5,0.3-0.8,0.5l-7.1,1.7
	c-0.7,0.2-1.2-0.5-1.1-1.1l1.7-7.1c0-0.2,0.2-0.3,0.3-0.7l0.2-0.2c0.2-0.2,0.7-0.2,0.8,0l5.9,5.9C42.5,83.9,42.5,84.4,42.4,84.4z
	 M59.5,67.1L45,81.8c-0.3,0.3-0.7,0.3-0.9,0l-5.9-5.9c-0.3-0.2-0.3-0.7,0-0.8l14.7-14.7c0.3-0.3,0.7-0.3,0.9,0l5.9,5.9
	C59.7,66.4,59.7,66.8,59.5,67.1z M64,62.7l-1.6,1.6c-0.3,0.3-0.7,0.3-0.9,0l-5.9-5.9c-0.3-0.3-0.3-0.7,0-0.9l1.6-1.6
	c1.1-1.1,2.6-1.1,3.8,0l3.1,3.1C65,60.2,65,61.7,64,62.7z"/>
</svg>