<?xml version="1.0" encoding="utf-8"?>
<!-- Generator: Adobe Illustrator 20.0.0, SVG Export Plug-In . SVG Version: 6.00 Build 0)  -->
<svg version="1.1" id="Layer_1" xmlns="http://www.w3.org/2000/svg" xmlns:xlink="http://www.w3.org/1999/xlink" x="0px" y="0px"
	 viewBox="0 0 120 120" style="enable-background:new 0 0 120 120;" xml:space="preserve">
<style type="text/css">
	.st0{fill:#44CB7E;}
	.st1{fill:#FFFFFF;}
</style>
<g id="Shape">
	<path class="st0" d="M120,108c0,6.6-5.4,12-12,12H12c-6.6,0-12-5.4-12-12V12C0,5.4,5.4,0,12,0h96c6.6,0,12,5.4,12,12V108L120,108z"
		/>
</g>
<path class="st1" d="M91.8,64.9H77.2c-4.4,0-7.9-3.6-7.9-7.9c0.7-11.8,6.1-12.5,6.6-20c0.5-7.9-4.5-15.1-12.3-16.8
	C53.2,18,44.1,25.8,44.1,35.8c0,8.7,6,8.7,6.6,21.2c0,4.4-3.6,7.9-7.9,7.9H28.2c-4.4,0-7.9,3.6-7.9,7.9v5.3c0,1.5,1.2,2.6,2.6,2.6
	h74.2c1.5,0,2.6-1.2,2.6-2.6v-5.3C99.7,68.5,96.2,64.9,91.8,64.9z M91.9,88.7H28.1c-1.5,0-2.5,1.2-2.5,2.5v0.1
	c0,4.4,3.6,7.9,7.9,7.9h53.1c4.4,0,7.8-3.6,7.8-7.9v-0.1C94.4,89.9,93.2,88.7,91.9,88.7z"/>
</svg>